<svg width="60" height="60" viewBox="0 0 60 60" fill="none" xmlns="http://www.w3.org/2000/svg">
<rect width="60" height="60" fill="#FAF1E8"/>
<path d="M16.3182 47V40.1818L29.3409 29.4091C30.2045 28.6932 30.9432 28.0227 31.5568 27.3977C32.1818 26.7614 32.6591 26.108 32.9886 25.4375C33.3295 24.767 33.5 24.0227 33.5 23.2045C33.5 22.3068 33.3068 21.5398 32.9205 20.9034C32.5455 20.267 32.0227 19.7784 31.3523 19.4375C30.6818 19.0852 29.9091 18.9091 29.0341 18.9091C28.1591 18.9091 27.3864 19.0852 26.7159 19.4375C26.0568 19.7898 25.5455 20.3068 25.1818 20.9886C24.8182 21.6705 24.6364 22.5 24.6364 23.4773H15.6364C15.6364 21.0227 16.1875 18.9091 17.2898 17.1364C18.392 15.3636 19.9489 14 21.9602 13.0455C23.9716 12.0909 26.3295 11.6136 29.0341 11.6136C31.8295 11.6136 34.25 12.0625 36.2955 12.9602C38.3523 13.8466 39.9375 15.0966 41.0511 16.7102C42.1761 18.3239 42.7386 20.2159 42.7386 22.3864C42.7386 23.7273 42.4602 25.0625 41.9034 26.392C41.3466 27.7102 40.3466 29.1705 38.9034 30.7727C37.4602 32.375 35.4091 34.2841 32.75 36.5L29.4773 39.2273V39.4318H43.1136V47H16.3182Z" fill="#414141"/>
</svg>
