<svg width="60" height="60" viewBox="0 0 60 60" fill="none" xmlns="http://www.w3.org/2000/svg">
<rect x="0.5" y="0.5" width="59" height="59" stroke="#FAF1E8"/>
<path d="M28.9545 47.4773C26.2045 47.4773 23.7614 47.0057 21.625 46.0625C19.5 45.108 17.8295 43.7955 16.6136 42.125C15.3977 40.4545 14.7841 38.5341 14.7727 36.3636H24.3182C24.3295 37.0341 24.5341 37.6364 24.9318 38.1705C25.3409 38.6932 25.8977 39.1023 26.6023 39.3977C27.3068 39.6932 28.1136 39.8409 29.0227 39.8409C29.8977 39.8409 30.6705 39.6875 31.3409 39.3807C32.0114 39.0625 32.5341 38.625 32.9091 38.0682C33.2841 37.5114 33.4659 36.875 33.4545 36.1591C33.4659 35.4545 33.25 34.8295 32.8068 34.2841C32.375 33.7386 31.767 33.3125 30.983 33.0057C30.1989 32.6989 29.2955 32.5455 28.2727 32.5455H24.7273V26H28.2727C29.2159 26 30.0455 25.8466 30.7614 25.5398C31.4886 25.233 32.0511 24.8068 32.4489 24.2614C32.858 23.7159 33.0568 23.0909 33.0455 22.3864C33.0568 21.7045 32.892 21.1023 32.5511 20.5795C32.2102 20.0568 31.733 19.6477 31.1193 19.3523C30.517 19.0568 29.8182 18.9091 29.0227 18.9091C28.1591 18.9091 27.3864 19.0625 26.7045 19.3693C26.0341 19.6761 25.5057 20.1023 25.1193 20.6477C24.733 21.1932 24.5341 21.8182 24.5227 22.5227H15.4545C15.4659 20.3864 16.0511 18.5 17.2102 16.8636C18.3807 15.2273 19.983 13.9432 22.017 13.0114C24.0511 12.0795 26.3864 11.6136 29.0227 11.6136C31.6023 11.6136 33.8807 12.0511 35.858 12.9261C37.8466 13.8011 39.3977 15.0057 40.5114 16.5398C41.6364 18.0625 42.1932 19.8068 42.1818 21.7727C42.2045 23.7273 41.5341 25.3295 40.1705 26.5795C38.8182 27.8295 37.1023 28.5682 35.0227 28.7955V29.0682C37.8409 29.375 39.9602 30.2386 41.3807 31.6591C42.8011 33.0682 43.5 34.8409 43.4773 36.9773C43.4886 39.0227 42.875 40.8352 41.6364 42.4148C40.4091 43.9943 38.6989 45.233 36.5057 46.1307C34.3239 47.0284 31.8068 47.4773 28.9545 47.4773Z" fill="#FAF1E8"/>
</svg>
